<svg width="220" height="50" viewBox="0 0 220 50" fill="none" xmlns="http://www.w3.org/2000/svg">
<circle cx="128" cy="25" r="25" fill="#EE6352"/>
<path d="M3.29998 9.24998C1.49998 10.9 2.89998 14.65 2.89998 14.65C0.849983 17 1.49998 21.05 1.49998 21.05L3.94998 14.4C3.64998 10.8 4.99998 9.74998 4.99998 9.74998C5.24998 9.19998 3.94998 8.64998 3.29998 9.24998Z" fill="#6C9925"/>
<path d="M3.79999 9.65002C2.29999 11 3.69999 14.55 3.69999 14.55C1.64999 16.9 2.34999 19.05 2.29999 20.35L12.25 14.45C11.15 11.55 4.99999 13.1 4.99999 13.1C3.74999 10.95 4.99999 9.75002 4.99999 9.75002C4.99999 9.75002 4.59999 9.90002 3.79999 9.65002Z" fill="#8CC63E"/>
<path d="M21.45 32C16.6 27.35 16.05 23.6 16.05 19.4C16.05 16.1 14.05 13.75 11.9 13.35C10.8 13.15 7.39999 13 8.54999 14C9.64999 15 4.49999 14.2 4.49999 16.35C4.49999 17.9 3.19999 16.05 1.64999 19.9C0.0999947 23.9 1.59999 26.65 3.84999 29.15C8.24999 33.95 18.55 42.7 29.2 37.2C34.7 34.45 26.15 36.5 21.45 32Z" fill="#EE6352"/>
<path d="M51.912 32.74C50.104 32.74 48.536 32.396 47.208 31.708C45.88 31.02 44.864 30.028 44.16 28.732C43.456 27.436 43.104 25.9 43.104 24.124C43.104 22.348 43.456 20.812 44.16 19.516C44.864 18.204 45.872 17.204 47.184 16.516C48.512 15.812 50.072 15.46 51.864 15.46C53.352 15.46 54.728 15.716 55.992 16.228C57.256 16.74 58.192 17.42 58.8 18.268C58.992 18.524 59.088 18.788 59.088 19.06C59.088 19.46 58.872 19.82 58.44 20.14C58.248 20.284 58.008 20.356 57.72 20.356C57.48 20.356 57.24 20.308 57 20.212C56.76 20.1 56.56 19.948 56.4 19.756C55.856 19.132 55.224 18.684 54.504 18.412C53.784 18.124 52.904 17.98 51.864 17.98C50.12 17.98 48.76 18.524 47.784 19.612C46.808 20.684 46.32 22.188 46.32 24.124C46.32 26.044 46.808 27.54 47.784 28.612C48.776 29.684 50.152 30.22 51.912 30.22C53.928 30.22 55.536 29.628 56.736 28.444C57.232 27.98 57.688 27.748 58.104 27.748C58.392 27.748 58.656 27.844 58.896 28.036C59.264 28.356 59.448 28.708 59.448 29.092C59.448 29.38 59.344 29.66 59.136 29.932C58.448 30.812 57.464 31.5 56.184 31.996C54.92 32.492 53.496 32.74 51.912 32.74ZM63.2265 32.74C62.7305 32.74 62.3465 32.612 62.0745 32.356C61.8025 32.1 61.6665 31.748 61.6665 31.3V15.724C61.6665 15.276 61.8025 14.924 62.0745 14.668C62.3465 14.412 62.7305 14.284 63.2265 14.284C63.7065 14.284 64.0905 14.412 64.3785 14.668C64.6665 14.924 64.8105 15.276 64.8105 15.724V22.636C65.4025 21.9 66.0665 21.364 66.8025 21.028C67.5385 20.676 68.3945 20.5 69.3705 20.5C70.9065 20.5 72.1145 20.988 72.9945 21.964C73.8905 22.924 74.3385 24.236 74.3385 25.9V31.3C74.3385 31.748 74.1945 32.1 73.9065 32.356C73.6185 32.612 73.2345 32.74 72.7545 32.74C72.2585 32.74 71.8745 32.612 71.6025 32.356C71.3305 32.1 71.1945 31.748 71.1945 31.3V25.9C71.1945 24.988 70.9705 24.276 70.5225 23.764C70.0745 23.252 69.4505 22.996 68.6505 22.996C67.4345 22.996 66.4905 23.356 65.8185 24.076C65.1465 24.78 64.8105 25.772 64.8105 27.052V31.3C64.8105 31.748 64.6665 32.1 64.3785 32.356C64.0905 32.612 63.7065 32.74 63.2265 32.74ZM78.4001 19.012C77.8081 19.012 77.3281 18.852 76.9601 18.532C76.6081 18.196 76.4321 17.764 76.4321 17.236C76.4321 16.708 76.6081 16.284 76.9601 15.964C77.3281 15.628 77.8081 15.46 78.4001 15.46C78.9921 15.46 79.4721 15.628 79.8401 15.964C80.2241 16.284 80.4161 16.708 80.4161 17.236C80.4161 17.764 80.2241 18.196 79.8401 18.532C79.4721 18.852 78.9921 19.012 78.4001 19.012ZM78.4241 32.74C77.9281 32.74 77.5441 32.612 77.2721 32.356C77.0001 32.1 76.8641 31.748 76.8641 31.3V21.94C76.8641 21.492 77.0001 21.14 77.2721 20.884C77.5441 20.628 77.9281 20.5 78.4241 20.5C78.9041 20.5 79.2881 20.628 79.5761 20.884C79.8641 21.14 80.0081 21.492 80.0081 21.94V31.3C80.0081 31.748 79.8641 32.1 79.5761 32.356C79.2881 32.612 78.9041 32.74 78.4241 32.74ZM84.6596 32.74C84.1636 32.74 83.7796 32.612 83.5076 32.356C83.2356 32.1 83.0996 31.748 83.0996 31.3V15.724C83.0996 15.276 83.2356 14.924 83.5076 14.668C83.7796 14.412 84.1636 14.284 84.6596 14.284C85.1396 14.284 85.5236 14.412 85.8116 14.668C86.0996 14.924 86.2436 15.276 86.2436 15.724V31.3C86.2436 31.748 86.0996 32.1 85.8116 32.356C85.5236 32.612 85.1396 32.74 84.6596 32.74ZM90.8923 19.012C90.3003 19.012 89.8203 18.852 89.4523 18.532C89.1003 18.196 88.9243 17.764 88.9243 17.236C88.9243 16.708 89.1003 16.284 89.4523 15.964C89.8203 15.628 90.3003 15.46 90.8923 15.46C91.4843 15.46 91.9643 15.628 92.3323 15.964C92.7163 16.284 92.9083 16.708 92.9083 17.236C92.9083 17.764 92.7163 18.196 92.3323 18.532C91.9643 18.852 91.4843 19.012 90.8923 19.012ZM90.9163 32.74C90.4203 32.74 90.0363 32.612 89.7643 32.356C89.4923 32.1 89.3563 31.748 89.3563 31.3V21.94C89.3563 21.492 89.4923 21.14 89.7643 20.884C90.0363 20.628 90.4203 20.5 90.9163 20.5C91.3963 20.5 91.7803 20.628 92.0683 20.884C92.3563 21.14 92.5003 21.492 92.5003 21.94V31.3C92.5003 31.748 92.3563 32.1 92.0683 32.356C91.7803 32.612 91.3963 32.74 90.9163 32.74Z" fill="#EE6352"/>
<path d="M109.886 32.74C108.318 32.74 106.846 32.484 105.47 31.972C104.094 31.444 102.902 30.692 101.894 29.716C101.654 29.476 101.534 29.204 101.534 28.9C101.534 28.548 101.694 28.212 102.014 27.892C102.27 27.636 102.55 27.508 102.854 27.508C103.174 27.508 103.558 27.692 104.006 28.06C104.758 28.748 105.646 29.284 106.67 29.668C107.71 30.036 108.782 30.22 109.886 30.22C110.942 30.22 111.766 30.044 112.358 29.692C112.95 29.324 113.246 28.812 113.246 28.156C113.246 27.468 112.926 26.916 112.286 26.5C111.646 26.068 110.558 25.684 109.022 25.348C106.606 24.82 104.846 24.124 103.742 23.26C102.654 22.396 102.11 21.284 102.11 19.924C102.11 19.06 102.398 18.292 102.974 17.62C103.55 16.932 104.35 16.404 105.374 16.036C106.414 15.652 107.598 15.46 108.926 15.46C110.414 15.46 111.734 15.708 112.886 16.204C114.054 16.684 114.942 17.364 115.55 18.244C115.758 18.58 115.862 18.868 115.862 19.108C115.846 19.508 115.646 19.852 115.262 20.14C115.054 20.284 114.814 20.356 114.542 20.356C114.046 20.356 113.638 20.164 113.318 19.78C112.854 19.22 112.23 18.78 111.446 18.46C110.678 18.14 109.838 17.98 108.926 17.98C107.79 17.98 106.902 18.156 106.262 18.508C105.638 18.844 105.326 19.316 105.326 19.924C105.326 20.532 105.63 21.036 106.238 21.436C106.862 21.82 107.934 22.188 109.454 22.54C111.134 22.94 112.486 23.396 113.51 23.908C114.534 24.404 115.278 24.996 115.742 25.684C116.222 26.372 116.462 27.196 116.462 28.156C116.462 29.068 116.19 29.876 115.646 30.58C115.102 31.268 114.334 31.804 113.342 32.188C112.35 32.556 111.198 32.74 109.886 32.74ZM128.459 29.404C128.715 29.612 128.843 29.868 128.843 30.172C128.843 30.476 128.731 30.788 128.507 31.108C128.155 31.62 127.659 32.02 127.019 32.308C126.379 32.596 125.659 32.74 124.859 32.74C123.579 32.74 122.571 32.396 121.835 31.708C121.115 31.004 120.755 30.044 120.755 28.828V23.212H119.771C119.291 23.212 118.907 23.1 118.619 22.876C118.331 22.652 118.187 22.356 118.187 21.988C118.187 21.604 118.323 21.3 118.595 21.076C118.883 20.852 119.275 20.74 119.771 20.74H120.755V17.116C120.755 16.668 120.899 16.316 121.187 16.06C121.475 15.804 121.859 15.676 122.339 15.676C122.835 15.676 123.219 15.804 123.491 16.06C123.763 16.316 123.898 16.668 123.898 17.116V20.74H126.203C126.699 20.74 127.083 20.852 127.355 21.076C127.643 21.3 127.787 21.604 127.787 21.988C127.787 22.356 127.643 22.652 127.355 22.876C127.083 23.1 126.699 23.212 126.203 23.212H123.898V29.092C123.898 29.444 124.003 29.724 124.211 29.932C124.435 30.14 124.731 30.244 125.099 30.244C125.387 30.244 125.635 30.204 125.843 30.124C126.067 30.028 126.291 29.876 126.515 29.668C126.931 29.268 127.315 29.068 127.667 29.068C127.923 29.068 128.187 29.18 128.459 29.404ZM135.373 32.74C134.381 32.74 133.501 32.572 132.733 32.236C131.981 31.9 131.389 31.436 130.957 30.844C130.541 30.236 130.333 29.54 130.333 28.756C130.333 27.572 130.821 26.628 131.797 25.924C132.789 25.22 134.125 24.868 135.805 24.868C137.261 24.868 138.429 25.18 139.309 25.804V25.228C139.309 24.476 139.077 23.9 138.613 23.5C138.149 23.1 137.477 22.9 136.597 22.9C135.285 22.9 134.157 23.18 133.213 23.74C132.813 23.964 132.469 24.076 132.181 24.076C131.829 24.076 131.517 23.916 131.245 23.596C131.069 23.372 130.981 23.14 130.981 22.9C130.981 22.5 131.189 22.148 131.605 21.844C132.181 21.428 132.909 21.1 133.789 20.86C134.669 20.62 135.597 20.5 136.573 20.5C138.429 20.5 139.885 20.924 140.941 21.772C142.013 22.604 142.549 23.756 142.549 25.228V31.396C142.549 31.812 142.405 32.14 142.117 32.38C141.845 32.62 141.469 32.74 140.989 32.74C140.493 32.74 140.109 32.628 139.837 32.404C139.565 32.18 139.429 31.86 139.429 31.444V31.18C138.517 32.22 137.165 32.74 135.373 32.74ZM136.117 30.532C137.125 30.532 137.909 30.38 138.469 30.076C139.045 29.756 139.333 29.316 139.333 28.756C139.333 28.228 139.045 27.804 138.469 27.484C137.893 27.164 137.125 27.004 136.165 27.004C135.301 27.004 134.629 27.156 134.149 27.46C133.685 27.764 133.453 28.196 133.453 28.756C133.453 29.316 133.685 29.756 134.149 30.076C134.613 30.38 135.269 30.532 136.117 30.532ZM153.818 29.404C154.074 29.612 154.202 29.868 154.202 30.172C154.202 30.476 154.09 30.788 153.866 31.108C153.514 31.62 153.018 32.02 152.378 32.308C151.738 32.596 151.018 32.74 150.218 32.74C148.938 32.74 147.93 32.396 147.194 31.708C146.474 31.004 146.114 30.044 146.114 28.828V23.212H145.13C144.65 23.212 144.266 23.1 143.978 22.876C143.69 22.652 143.546 22.356 143.546 21.988C143.546 21.604 143.682 21.3 143.954 21.076C144.242 20.852 144.634 20.74 145.13 20.74H146.114V17.116C146.114 16.668 146.258 16.316 146.546 16.06C146.834 15.804 147.218 15.676 147.698 15.676C148.194 15.676 148.578 15.804 148.85 16.06C149.122 16.316 149.258 16.668 149.258 17.116V20.74H151.562C152.058 20.74 152.442 20.852 152.714 21.076C153.002 21.3 153.146 21.604 153.146 21.988C153.146 22.356 153.002 22.652 152.714 22.876C152.442 23.1 152.058 23.212 151.562 23.212H149.258V29.092C149.258 29.444 149.362 29.724 149.57 29.932C149.794 30.14 150.09 30.244 150.458 30.244C150.746 30.244 150.994 30.204 151.202 30.124C151.426 30.028 151.65 29.876 151.874 29.668C152.29 29.268 152.674 29.068 153.026 29.068C153.282 29.068 153.546 29.18 153.818 29.404ZM157.9 19.012C157.308 19.012 156.828 18.852 156.46 18.532C156.108 18.196 155.932 17.764 155.932 17.236C155.932 16.708 156.108 16.284 156.46 15.964C156.828 15.628 157.308 15.46 157.9 15.46C158.492 15.46 158.972 15.628 159.34 15.964C159.724 16.284 159.916 16.708 159.916 17.236C159.916 17.764 159.724 18.196 159.34 18.532C158.972 18.852 158.492 19.012 157.9 19.012ZM157.924 32.74C157.428 32.74 157.044 32.612 156.772 32.356C156.5 32.1 156.364 31.748 156.364 31.3V21.94C156.364 21.492 156.5 21.14 156.772 20.884C157.044 20.628 157.428 20.5 157.924 20.5C158.404 20.5 158.788 20.628 159.076 20.884C159.364 21.14 159.508 21.492 159.508 21.94V31.3C159.508 31.748 159.364 32.1 159.076 32.356C158.788 32.612 158.404 32.74 157.924 32.74ZM167.952 32.74C165.376 32.74 163.48 31.996 162.264 30.508C162.008 30.172 161.88 29.868 161.88 29.596C161.88 29.212 162.08 28.876 162.48 28.588C162.752 28.412 163.016 28.324 163.272 28.324C163.624 28.324 163.952 28.476 164.256 28.78C164.8 29.324 165.328 29.716 165.84 29.956C166.368 30.18 167.016 30.292 167.784 30.292C168.44 30.292 168.992 30.204 169.44 30.028C169.888 29.852 170.112 29.636 170.112 29.38C170.112 29.06 169.928 28.788 169.56 28.564C169.192 28.34 168.448 28.052 167.328 27.7C165.568 27.156 164.32 26.588 163.584 25.996C162.848 25.388 162.48 24.636 162.48 23.74C162.48 22.732 162.912 21.94 163.776 21.364C164.64 20.788 165.832 20.5 167.352 20.5C168.52 20.5 169.576 20.676 170.52 21.028C171.464 21.38 172.152 21.852 172.584 22.444C172.792 22.716 172.896 22.988 172.896 23.26C172.896 23.644 172.704 23.956 172.32 24.196C172.048 24.372 171.768 24.46 171.48 24.46C171.016 24.46 170.592 24.268 170.208 23.884C169.888 23.58 169.472 23.348 168.96 23.188C168.464 23.028 167.92 22.948 167.328 22.948C166.208 22.948 165.648 23.212 165.648 23.74C165.648 23.948 165.736 24.132 165.912 24.292C166.088 24.452 166.4 24.62 166.848 24.796C167.312 24.972 168.032 25.212 169.008 25.516C170.576 25.996 171.672 26.524 172.296 27.1C172.936 27.676 173.256 28.436 173.256 29.38C173.256 30.388 172.792 31.204 171.864 31.828C170.936 32.436 169.632 32.74 167.952 32.74ZM185.013 29.404C185.269 29.612 185.397 29.868 185.397 30.172C185.397 30.476 185.285 30.788 185.061 31.108C184.709 31.62 184.213 32.02 183.573 32.308C182.933 32.596 182.213 32.74 181.413 32.74C180.133 32.74 179.125 32.396 178.389 31.708C177.669 31.004 177.309 30.044 177.309 28.828V23.212H176.325C175.845 23.212 175.461 23.1 175.173 22.876C174.885 22.652 174.741 22.356 174.741 21.988C174.741 21.604 174.877 21.3 175.149 21.076C175.437 20.852 175.829 20.74 176.325 20.74H177.309V17.116C177.309 16.668 177.453 16.316 177.741 16.06C178.029 15.804 178.413 15.676 178.893 15.676C179.389 15.676 179.773 15.804 180.045 16.06C180.317 16.316 180.453 16.668 180.453 17.116V20.74H182.757C183.253 20.74 183.637 20.852 183.909 21.076C184.197 21.3 184.341 21.604 184.341 21.988C184.341 22.356 184.197 22.652 183.909 22.876C183.637 23.1 183.253 23.212 182.757 23.212H180.453V29.092C180.453 29.444 180.557 29.724 180.765 29.932C180.989 30.14 181.285 30.244 181.653 30.244C181.941 30.244 182.189 30.204 182.397 30.124C182.621 30.028 182.845 29.876 183.069 29.668C183.485 29.268 183.869 29.068 184.221 29.068C184.477 29.068 184.741 29.18 185.013 29.404ZM189.095 19.012C188.503 19.012 188.023 18.852 187.655 18.532C187.303 18.196 187.127 17.764 187.127 17.236C187.127 16.708 187.303 16.284 187.655 15.964C188.023 15.628 188.503 15.46 189.095 15.46C189.687 15.46 190.167 15.628 190.535 15.964C190.919 16.284 191.111 16.708 191.111 17.236C191.111 17.764 190.919 18.196 190.535 18.532C190.167 18.852 189.687 19.012 189.095 19.012ZM189.119 32.74C188.623 32.74 188.239 32.612 187.967 32.356C187.695 32.1 187.559 31.748 187.559 31.3V21.94C187.559 21.492 187.695 21.14 187.967 20.884C188.239 20.628 188.623 20.5 189.119 20.5C189.599 20.5 189.983 20.628 190.271 20.884C190.559 21.14 190.703 21.492 190.703 21.94V31.3C190.703 31.748 190.559 32.1 190.271 32.356C189.983 32.612 189.599 32.74 189.119 32.74ZM199.843 32.74C197.699 32.74 196.035 32.204 194.851 31.132C193.667 30.044 193.075 28.532 193.075 26.596C193.075 24.66 193.667 23.164 194.851 22.108C196.035 21.036 197.699 20.5 199.843 20.5C200.979 20.5 202.003 20.692 202.915 21.076C203.843 21.444 204.571 21.972 205.099 22.66C205.291 22.9 205.387 23.156 205.387 23.428C205.387 23.844 205.171 24.212 204.739 24.532C204.547 24.676 204.307 24.748 204.019 24.748C203.795 24.748 203.563 24.7 203.323 24.604C203.083 24.492 202.875 24.34 202.699 24.148C202.379 23.78 201.963 23.5 201.451 23.308C200.955 23.1 200.419 22.996 199.843 22.996C198.707 22.996 197.819 23.316 197.179 23.956C196.555 24.58 196.243 25.46 196.243 26.596C196.243 27.764 196.555 28.668 197.179 29.308C197.819 29.932 198.707 30.244 199.843 30.244C201.107 30.244 202.187 29.82 203.083 28.972C203.531 28.524 203.971 28.3 204.403 28.3C204.691 28.3 204.955 28.396 205.195 28.588C205.579 28.892 205.771 29.26 205.771 29.692C205.771 29.964 205.659 30.228 205.435 30.484C204.699 31.268 203.875 31.844 202.963 32.212C202.067 32.564 201.027 32.74 199.843 32.74ZM213.561 32.74C210.985 32.74 209.089 31.996 207.873 30.508C207.617 30.172 207.489 29.868 207.489 29.596C207.489 29.212 207.689 28.876 208.089 28.588C208.361 28.412 208.625 28.324 208.881 28.324C209.233 28.324 209.561 28.476 209.865 28.78C210.409 29.324 210.937 29.716 211.449 29.956C211.977 30.18 212.625 30.292 213.393 30.292C214.049 30.292 214.601 30.204 215.049 30.028C215.497 29.852 215.721 29.636 215.721 29.38C215.721 29.06 215.537 28.788 215.169 28.564C214.801 28.34 214.057 28.052 212.937 27.7C211.177 27.156 209.929 26.588 209.193 25.996C208.457 25.388 208.089 24.636 208.089 23.74C208.089 22.732 208.521 21.94 209.385 21.364C210.249 20.788 211.441 20.5 212.961 20.5C214.129 20.5 215.185 20.676 216.129 21.028C217.073 21.38 217.761 21.852 218.193 22.444C218.401 22.716 218.505 22.988 218.505 23.26C218.505 23.644 218.313 23.956 217.929 24.196C217.657 24.372 217.377 24.46 217.089 24.46C216.625 24.46 216.201 24.268 215.817 23.884C215.497 23.58 215.081 23.348 214.569 23.188C214.073 23.028 213.529 22.948 212.937 22.948C211.817 22.948 211.257 23.212 211.257 23.74C211.257 23.948 211.345 24.132 211.521 24.292C211.697 24.452 212.009 24.62 212.457 24.796C212.921 24.972 213.641 25.212 214.617 25.516C216.185 25.996 217.281 26.524 217.905 27.1C218.545 27.676 218.865 28.436 218.865 29.38C218.865 30.388 218.401 31.204 217.473 31.828C216.545 32.436 215.241 32.74 213.561 32.74Z" fill="#F9F2F3"/>
</svg>
